<svg width="17" height="17" viewBox="0 0 17 17" fill="none" xmlns="http://www.w3.org/2000/svg">
<circle cx="8.48022" cy="8.53139" r="8" fill="#35AB52"/>
<path d="M7.83363 6.11651H8.84909V11.0376H7.71646V8.57707L6.58382 11.0376H5.8808L4.74817 8.57707V11.0376H3.61553V6.11651H4.631L6.23231 9.59254L7.83363 6.11651ZM9.51336 7.48349C9.52377 7.29602 9.57064 7.11896 9.65396 6.95232C9.74249 6.78047 9.86226 6.63206 10.0133 6.50708C10.1643 6.37689 10.344 6.27274 10.5523 6.19463C10.7658 6.11651 11.0053 6.07746 11.2709 6.07746C11.5365 6.07746 11.7734 6.11651 11.9817 6.19463C12.1952 6.26753 12.3749 6.36908 12.5207 6.49927C12.6717 6.62425 12.7863 6.77006 12.8644 6.9367C12.9477 7.09813 12.9894 7.26738 12.9894 7.44443C12.9894 7.62149 12.9529 7.77511 12.88 7.9053C12.8123 8.03028 12.7368 8.13443 12.6535 8.21775C12.5598 8.31149 12.4504 8.3922 12.3254 8.4599C12.4712 8.5276 12.6014 8.61613 12.716 8.72549C12.8149 8.81922 12.9035 8.9442 12.9816 9.10043C13.0649 9.25665 13.1066 9.44673 13.1066 9.67065C13.1066 9.85812 13.0649 10.0378 12.9816 10.2096C12.9035 10.3763 12.7863 10.5247 12.6301 10.6549C12.479 10.7799 12.2916 10.8814 12.0676 10.9595C11.8437 11.0376 11.5912 11.0767 11.31 11.0767C11.0287 11.0767 10.7762 11.0376 10.5523 10.9595C10.3283 10.8814 10.1383 10.7773 9.98203 10.6471C9.82581 10.5169 9.70343 10.3659 9.6149 10.194C9.53158 10.017 9.48472 9.82948 9.4743 9.6316L10.6069 9.55348C10.6278 9.68888 10.6929 9.80865 10.8022 9.9128C10.9168 10.0117 11.073 10.0612 11.2709 10.0612C11.4896 10.0612 11.6537 10.0091 11.763 9.90499C11.8776 9.80084 11.9349 9.67065 11.9349 9.51443C11.9349 9.37903 11.875 9.26186 11.7552 9.16292C11.6406 9.05877 11.4662 9.00669 11.2318 9.00669H10.7632V8.06934H11.2318C11.4506 8.06934 11.6094 8.02507 11.7083 7.93655C11.8073 7.84802 11.8567 7.73606 11.8567 7.60066C11.8567 7.46526 11.8021 7.3481 11.6927 7.24915C11.5833 7.145 11.4297 7.09293 11.2318 7.09293C11.0548 7.09293 10.9168 7.13719 10.8178 7.22572C10.7241 7.31425 10.6668 7.42621 10.646 7.5616L9.51336 7.48349Z" fill="white"/>
</svg>
