<svg width="17" height="17" viewBox="0 0 17 17" fill="none" xmlns="http://www.w3.org/2000/svg">
<circle cx="8.54785" cy="8.53139" r="8" fill="#2782C5"/>
<path d="M7.90137 6.11651H8.91684V11.0376H7.7842V8.57707L6.65157 11.0376H5.94855L4.81591 8.57707V11.0376H3.68328V6.11651H4.69874L6.30006 9.59254L7.90137 6.11651ZM13.0571 9.94405V11.0376H9.65922V10.2565L11.4558 8.38179C11.5339 8.29847 11.6042 8.21254 11.6667 8.12402C11.724 8.05111 11.7735 7.96779 11.8151 7.87406C11.862 7.78032 11.8854 7.68919 11.8854 7.60066C11.8854 7.44443 11.8386 7.32206 11.7448 7.23353C11.6511 7.13979 11.5157 7.09293 11.3386 7.09293C11.1408 7.09293 10.9871 7.14761 10.8778 7.25696C10.7684 7.36632 10.7137 7.51994 10.7137 7.71783L9.62016 7.63972C9.62016 7.41579 9.65922 7.2101 9.73733 7.02262C9.82065 6.82995 9.93522 6.66331 10.081 6.5227C10.232 6.3821 10.4117 6.27274 10.62 6.19463C10.8335 6.11651 11.0731 6.07746 11.3386 6.07746C11.6094 6.07746 11.8516 6.11391 12.0651 6.18682C12.2786 6.25972 12.4583 6.36387 12.6041 6.49927C12.7551 6.62946 12.8671 6.78568 12.94 6.96795C13.0181 7.15021 13.0571 7.34809 13.0571 7.5616C13.0571 7.74907 13.0155 7.92873 12.9322 8.10058C12.854 8.26722 12.7655 8.41564 12.6666 8.54583C12.552 8.69684 12.4218 8.83745 12.276 8.96764L11.3386 9.94405H13.0571Z" fill="white"/>
</svg>
